<?xml version="1.0" encoding="UTF-8"?>
<svg id="Layer_1" data-name="Layer 1" xmlns="http://www.w3.org/2000/svg" viewBox="0 0 400 130">
  <defs>
    <style>
      .cls-1 {
        fill: #d16d6f;
      }
    </style>
  </defs>
  <polygon class="cls-1" points="389.17 54.17 389.17 32.5 378.34 32.5 378.34 21.67 367.5 21.67 367.5 10.83 356.67 10.83 356.67 0 43.34 0 43.34 10.83 32.5 10.83 32.5 21.67 21.67 21.67 21.67 32.5 10.84 32.5 10.84 54.17 0 54.17 0 75.6 10.84 75.6 10.84 97.27 21.67 97.27 21.67 108.1 32.5 108.1 32.5 118.93 43.34 118.93 43.34 129.77 356.67 129.77 356.67 118.93 367.5 118.93 367.5 108.1 378.34 108.1 378.34 97.27 389.17 97.27 389.17 75.6 400 75.6 400 54.17 389.17 54.17"/>
</svg>